<mxfile host="app.diagrams.net" modified="2022-02-26T21:48:46.238Z" agent="5.0 (Windows NT 10.0; Win64; x64) AppleWebKit/537.36 (KHTML, like Gecko) Chrome/98.0.4758.102 Safari/537.36" etag="a3_ntHBdZJcjrMcG3C07" version="16.6.4" type="github">
  <diagram name="Page-1" id="2cc2dc42-3aac-f2a9-1cec-7a8b7cbee084">
    <mxGraphModel dx="1422" dy="733" grid="1" gridSize="10" guides="1" tooltips="1" connect="1" arrows="1" fold="1" page="1" pageScale="1" pageWidth="850" pageHeight="1100" background="none" math="0" shadow="0">
      <root>
        <mxCell id="0" />
        <mxCell id="1" parent="0" />
        <mxCell id="Iiab_oK1CTWUC0NVhXky-15" value="&lt;b&gt;&lt;font style=&quot;font-size: 14px&quot;&gt;Home page - Validator&lt;/font&gt;&lt;/b&gt;" style="text;html=1;strokeColor=none;fillColor=none;align=center;verticalAlign=middle;whiteSpace=wrap;rounded=0;" parent="1" vertex="1">
          <mxGeometry x="20" y="10" width="770" height="30" as="geometry" />
        </mxCell>
        <mxCell id="Iiab_oK1CTWUC0NVhXky-16" value="" style="strokeWidth=1;shadow=0;dashed=0;align=center;html=1;shape=mxgraph.mockup.containers.browserWindow;rSize=0;strokeColor=#666666;strokeColor2=#008cff;strokeColor3=#c4c4c4;mainText=,;recursiveResize=0;" parent="1" vertex="1">
          <mxGeometry x="25" y="60" width="800" height="480" as="geometry" />
        </mxCell>
        <mxCell id="Iiab_oK1CTWUC0NVhXky-17" value="badmintonhub" style="strokeWidth=1;shadow=0;dashed=0;align=center;html=1;shape=mxgraph.mockup.containers.anchor;fontSize=17;fontColor=#666666;align=left;" parent="Iiab_oK1CTWUC0NVhXky-16" vertex="1">
          <mxGeometry x="60" y="12" width="110" height="26" as="geometry" />
        </mxCell>
        <mxCell id="Iiab_oK1CTWUC0NVhXky-18" value="https://www.badmintonhub.com/validator" style="strokeWidth=1;shadow=0;dashed=0;align=center;html=1;shape=mxgraph.mockup.containers.anchor;rSize=0;fontSize=17;fontColor=#666666;align=left;" parent="Iiab_oK1CTWUC0NVhXky-16" vertex="1">
          <mxGeometry x="130" y="60" width="250" height="26" as="geometry" />
        </mxCell>
        <mxCell id="Iiab_oK1CTWUC0NVhXky-26" value="" style="strokeWidth=1;shadow=0;dashed=0;align=center;html=1;shape=mxgraph.mockup.forms.rrect;rSize=0;strokeColor=#999999;fillColor=#ffffff;fontSize=14;" parent="Iiab_oK1CTWUC0NVhXky-16" vertex="1">
          <mxGeometry x="535" y="120" width="220" height="300" as="geometry" />
        </mxCell>
        <mxCell id="Iiab_oK1CTWUC0NVhXky-27" value="Enter Details:" style="strokeWidth=1;shadow=0;dashed=0;align=center;html=1;shape=mxgraph.mockup.forms.anchor;fontSize=12;fontColor=#666666;align=left;resizeWidth=1;spacingLeft=0;" parent="Iiab_oK1CTWUC0NVhXky-26" vertex="1">
          <mxGeometry width="100" height="20" relative="1" as="geometry">
            <mxPoint x="10" y="10" as="offset" />
          </mxGeometry>
        </mxCell>
        <mxCell id="Iiab_oK1CTWUC0NVhXky-28" value="" style="shape=line;strokeColor=#ddeeff;strokeWidth=2;html=1;resizeWidth=1;fontSize=14;" parent="Iiab_oK1CTWUC0NVhXky-26" vertex="1">
          <mxGeometry width="180" height="10" relative="1" as="geometry">
            <mxPoint x="10" y="30" as="offset" />
          </mxGeometry>
        </mxCell>
        <mxCell id="Iiab_oK1CTWUC0NVhXky-29" value="Decentralized ID:" style="strokeWidth=1;shadow=0;dashed=0;align=center;html=1;shape=mxgraph.mockup.forms.anchor;fontSize=12;fontColor=#666666;align=left;resizeWidth=1;spacingLeft=0;" parent="Iiab_oK1CTWUC0NVhXky-26" vertex="1">
          <mxGeometry width="100" height="20" relative="1" as="geometry">
            <mxPoint x="10" y="40" as="offset" />
          </mxGeometry>
        </mxCell>
        <mxCell id="Iiab_oK1CTWUC0NVhXky-30" value="0x81xxxxxxxxx" style="strokeWidth=1;shadow=0;dashed=0;align=center;html=1;shape=mxgraph.mockup.forms.rrect;rSize=0;strokeColor=#999999;fontColor=#666666;align=left;spacingLeft=5;resizeWidth=1;fontSize=14;" parent="Iiab_oK1CTWUC0NVhXky-26" vertex="1">
          <mxGeometry width="150" height="25" relative="1" as="geometry">
            <mxPoint x="10" y="60" as="offset" />
          </mxGeometry>
        </mxCell>
        <mxCell id="Iiab_oK1CTWUC0NVhXky-31" value="" style="strokeWidth=1;shadow=0;dashed=0;align=center;html=1;shape=mxgraph.mockup.forms.anchor;fontSize=12;fontColor=#666666;align=left;resizeWidth=1;spacingLeft=0;" parent="Iiab_oK1CTWUC0NVhXky-26" vertex="1">
          <mxGeometry width="100" height="20" relative="1" as="geometry">
            <mxPoint x="10" y="95" as="offset" />
          </mxGeometry>
        </mxCell>
        <mxCell id="Iiab_oK1CTWUC0NVhXky-33" value="Confirm" style="strokeWidth=1;shadow=0;dashed=0;align=center;html=1;shape=mxgraph.mockup.forms.rrect;rSize=5;strokeColor=none;fontColor=#ffffff;fillColor=#66bbff;fontSize=16;fontStyle=1;" parent="Iiab_oK1CTWUC0NVhXky-26" vertex="1">
          <mxGeometry y="1" width="80" height="30" relative="1" as="geometry">
            <mxPoint x="20" y="-50" as="offset" />
          </mxGeometry>
        </mxCell>
        <mxCell id="Iiab_oK1CTWUC0NVhXky-36" value="" style="strokeWidth=1;shadow=0;dashed=0;align=center;html=1;shape=mxgraph.mockup.forms.anchor;fontSize=12;fontColor=#666666;align=left;spacingLeft=0;resizeWidth=1;" parent="Iiab_oK1CTWUC0NVhXky-26" vertex="1">
          <mxGeometry y="1" width="150" height="20" relative="1" as="geometry">
            <mxPoint x="10" y="-70" as="offset" />
          </mxGeometry>
        </mxCell>
        <mxCell id="Iiab_oK1CTWUC0NVhXky-38" value="Transaction Type:" style="strokeWidth=1;shadow=0;dashed=0;align=center;html=1;shape=mxgraph.mockup.forms.anchor;fontSize=12;fontColor=#666666;align=left;resizeWidth=1;spacingLeft=0;" parent="Iiab_oK1CTWUC0NVhXky-26" vertex="1">
          <mxGeometry x="10" y="100" width="100" height="20" as="geometry" />
        </mxCell>
        <mxCell id="Iiab_oK1CTWUC0NVhXky-42" value="" style="strokeWidth=1;shadow=0;dashed=0;align=center;html=1;shape=mxgraph.mockup.forms.rrect;rSize=0;strokeColor=#999999;fillColor=#ffffff;recursiveResize=0;fontSize=13;" parent="Iiab_oK1CTWUC0NVhXky-26" vertex="1">
          <mxGeometry x="10" y="120" width="110" height="60" as="geometry" />
        </mxCell>
        <mxCell id="Iiab_oK1CTWUC0NVhXky-45" value="&lt;font style=&quot;font-size: 12px&quot;&gt;Purchase&lt;/font&gt;" style="strokeWidth=1;shadow=0;dashed=0;align=center;html=1;shape=mxgraph.mockup.forms.checkbox;rSize=0;resizable=0;fillColor=#aaaaaa;strokeColor=#444444;gradientColor=#666666;align=left;spacingLeft=4;fontSize=17;fontColor=#008cff;labelPosition=right;" parent="Iiab_oK1CTWUC0NVhXky-42" vertex="1">
          <mxGeometry x="8" y="10" width="15" height="15" as="geometry" />
        </mxCell>
        <mxCell id="Iiab_oK1CTWUC0NVhXky-46" value="&lt;font style=&quot;font-size: 12px&quot;&gt;Sell&lt;/font&gt;" style="strokeWidth=1;shadow=0;dashed=0;align=center;html=1;shape=mxgraph.mockup.forms.rrect;rSize=0;fillColor=#eeeeee;strokeColor=#999999;gradientColor=#cccccc;align=left;spacingLeft=4;fontSize=17;fontColor=#666666;labelPosition=right;" parent="Iiab_oK1CTWUC0NVhXky-42" vertex="1">
          <mxGeometry x="8" y="40" width="15" height="15" as="geometry" />
        </mxCell>
        <mxCell id="otyS6J0p7Y_NoCW2o8Xo-3" value="Amount:" style="strokeWidth=1;shadow=0;dashed=0;align=center;html=1;shape=mxgraph.mockup.forms.anchor;fontSize=12;fontColor=#666666;align=left;resizeWidth=1;spacingLeft=0;" vertex="1" parent="Iiab_oK1CTWUC0NVhXky-26">
          <mxGeometry x="10" y="190" width="100" height="20" as="geometry" />
        </mxCell>
        <mxCell id="otyS6J0p7Y_NoCW2o8Xo-4" value="xxxxx" style="strokeWidth=1;shadow=0;dashed=0;align=center;html=1;shape=mxgraph.mockup.forms.rrect;rSize=0;strokeColor=#999999;fontColor=#666666;align=left;spacingLeft=5;resizeWidth=1;fontSize=14;" vertex="1" parent="Iiab_oK1CTWUC0NVhXky-26">
          <mxGeometry x="10" y="210" width="70" height="25" as="geometry" />
        </mxCell>
        <mxCell id="otyS6J0p7Y_NoCW2o8Xo-5" value="&lt;font style=&quot;font-size: 14px&quot;&gt;Available Tokens:&lt;/font&gt;" style="text;html=1;strokeColor=none;fillColor=none;align=center;verticalAlign=middle;whiteSpace=wrap;rounded=0;fontSize=12;" vertex="1" parent="Iiab_oK1CTWUC0NVhXky-16">
          <mxGeometry y="160" width="200" height="20" as="geometry" />
        </mxCell>
        <mxCell id="otyS6J0p7Y_NoCW2o8Xo-7" value="xxxx" style="strokeWidth=1;shadow=0;dashed=0;align=center;html=1;shape=mxgraph.mockup.forms.rrect;rSize=0;strokeColor=#999999;fontColor=#666666;align=left;spacingLeft=5;resizeWidth=1;fontSize=14;" vertex="1" parent="Iiab_oK1CTWUC0NVhXky-16">
          <mxGeometry x="170" y="155" width="150" height="25" as="geometry" />
        </mxCell>
        <mxCell id="otyS6J0p7Y_NoCW2o8Xo-8" value="Activity" style="swimlane;fontStyle=0;childLayout=stackLayout;horizontal=1;startSize=30;horizontalStack=0;resizeParent=1;resizeParentMax=0;resizeLast=0;collapsible=1;marginBottom=0;fontSize=14;" vertex="1" parent="Iiab_oK1CTWUC0NVhXky-16">
          <mxGeometry x="45" y="220" width="285" height="120" as="geometry" />
        </mxCell>
        <mxCell id="otyS6J0p7Y_NoCW2o8Xo-9" value="02/11/22  Sent xxxx" style="text;strokeColor=none;fillColor=none;align=left;verticalAlign=middle;spacingLeft=4;spacingRight=4;overflow=hidden;points=[[0,0.5],[1,0.5]];portConstraint=eastwest;rotatable=0;fontSize=14;" vertex="1" parent="otyS6J0p7Y_NoCW2o8Xo-8">
          <mxGeometry y="30" width="285" height="30" as="geometry" />
        </mxCell>
        <mxCell id="otyS6J0p7Y_NoCW2o8Xo-10" value="02/01/22  Received xxx" style="text;strokeColor=none;fillColor=none;align=left;verticalAlign=middle;spacingLeft=4;spacingRight=4;overflow=hidden;points=[[0,0.5],[1,0.5]];portConstraint=eastwest;rotatable=0;fontSize=14;" vertex="1" parent="otyS6J0p7Y_NoCW2o8Xo-8">
          <mxGeometry y="60" width="285" height="30" as="geometry" />
        </mxCell>
        <mxCell id="otyS6J0p7Y_NoCW2o8Xo-11" value="01/15/22  Failed xxx" style="text;strokeColor=none;fillColor=none;align=left;verticalAlign=middle;spacingLeft=4;spacingRight=4;overflow=hidden;points=[[0,0.5],[1,0.5]];portConstraint=eastwest;rotatable=0;fontSize=14;" vertex="1" parent="otyS6J0p7Y_NoCW2o8Xo-8">
          <mxGeometry y="90" width="285" height="30" as="geometry" />
        </mxCell>
      </root>
    </mxGraphModel>
  </diagram>
</mxfile>
